<svg width="189" height="24" viewBox="0 0 189 24" fill="none" xmlns="http://www.w3.org/2000/svg">
<path d="M153.062 22.9999V0.919922H163.814C167.398 0.919922 169.19 2.71192 169.19 6.29592V9.94392C169.19 12.6106 168.198 14.2746 166.214 14.9359L169.83 22.0399L169.286 22.9999H165.318L161.414 15.3199H157.67V22.9999H153.062ZM157.67 11.1599H163.622C164.262 11.1599 164.582 10.8399 164.582 10.1999V6.03992C164.582 5.39992 164.262 5.07992 163.622 5.07992H157.67V11.1599Z" fill="white"/>
<path d="M129.701 22.1359L136.261 0.919922H143.301L149.861 22.1359L149.285 22.9999H145.445L144.101 18.5199H135.461L134.117 22.9999H130.277L129.701 22.1359ZM136.709 14.3599H142.853L140.037 5.07992H139.525L136.709 14.3599Z" fill="white"/>
<path d="M112.624 22.9999V0.919922H123.376C126.96 0.919922 128.752 2.71192 128.752 6.29592V10.5839C128.752 14.1679 126.96 15.9599 123.376 15.9599H117.232V22.9999H112.624ZM117.232 11.7999H123.184C123.824 11.7999 124.144 11.4799 124.144 10.8399V6.03992C124.144 5.39992 123.824 5.07992 123.184 5.07992H117.232V11.7999Z" fill="white"/>
<path d="M93.3115 22.9999V0.919922H108.416V5.07992H97.9195V9.55992H107.456V13.7199H97.9195V18.8399H108.416V22.9999H93.3115Z" fill="white"/>
<path d="M173 23.08V1H188.104V5.16H177.608V9.64H187.144V13.8H177.608V18.92H188.104V23.08H173Z" fill="white"/>
<path d="M72.5615 22.9999V0.919922H83.3135C86.8975 0.919922 88.6895 2.71192 88.6895 6.29592V9.94392C88.6895 12.6106 87.6975 14.2746 85.7135 14.9359L89.3295 22.0399L88.7855 22.9999H84.8175L80.9135 15.3199H77.1695V22.9999H72.5615ZM77.1695 11.1599H83.1215C83.7615 11.1599 84.0815 10.8399 84.0815 10.1999V6.03992C84.0815 5.39992 83.7615 5.07992 83.1215 5.07992H77.1695V11.1599Z" fill="white"/>
<path d="M49.201 22.1359L55.761 0.919922H62.801L69.361 22.1359L68.785 22.9999H64.945L63.601 18.5199H54.961L53.617 22.9999H49.777L49.201 22.1359ZM56.209 14.3599H62.353L59.537 5.07992H59.025L56.209 14.3599Z" fill="white"/>
<path d="M28.5928 22.9999V0.919922H33.2008V9.55992H41.3928V0.919922H46.0008V22.9999H41.3928V13.7199H33.2008V22.9999H28.5928Z" fill="white"/>
<path d="M8.30402 17.6239V6.29592C8.30402 2.71192 10.096 0.919922 13.68 0.919922H22.224L24.368 2.58392V7.04H14.64C14 7.04 13.68 7.36 13.68 8V16C13.68 16.64 14 16.96 14.64 16.96H24.368V21.3359L22.224 22.9999H13.68C10.096 22.9999 8.30402 21.2079 8.30402 17.6239Z" fill="white"/>
<rect y="9" width="6" height="6" fill="white"/>
</svg>
